<?xml version="1.0" encoding="utf-8"?>
<!-- Generator: Adobe Illustrator 16.0.0, SVG Export Plug-In . SVG Version: 6.00 Build 0)  -->
<!DOCTYPE svg PUBLIC "-//W3C//DTD SVG 1.1//EN" "http://www.w3.org/Graphics/SVG/1.1/DTD/svg11.dtd">
<svg version="1.1" id="Layer_1" xmlns="http://www.w3.org/2000/svg" xmlns:xlink="http://www.w3.org/1999/xlink" x="0px" y="0px"
	 width="201px" height="55px" viewBox="0 0 201 55" enable-background="new 0 0 201 55" xml:space="preserve">
<g>
	<g>
		<linearGradient id="SVGID_1_" gradientUnits="userSpaceOnUse" x1="21.4004" y1="27.7715" x2="42.0874" y2="27.7715">
			<stop  offset="0" style="stop-color:#2580C3"/>
			<stop  offset="1" style="stop-color:#2580C3;stop-opacity:0"/>
		</linearGradient>
		<polygon fill="url(#SVGID_1_)" stroke="#1D1D1B" stroke-width="0.5" stroke-miterlimit="10" points="35.394,45.153 21.4,53.423 
			21.4,2.121 42.087,41.197 		"/>
		<g>
			<linearGradient id="SVGID_2_" gradientUnits="userSpaceOnUse" x1="21.4004" y1="2.1206" x2="21.4004" y2="2.1206">
				<stop  offset="0" style="stop-color:#2580C3"/>
				<stop  offset="1" style="stop-color:#2580C3;stop-opacity:0"/>
			</linearGradient>
			<path fill="url(#SVGID_2_)" stroke="#1D1D1B" stroke-width="0.5" stroke-miterlimit="10" d="M21.4,2.121"/>
			<linearGradient id="SVGID_3_" gradientUnits="userSpaceOnUse" x1="21.4004" y1="53.4229" x2="21.4004" y2="53.4229">
				<stop  offset="0" style="stop-color:#2580C3"/>
				<stop  offset="1" style="stop-color:#2580C3;stop-opacity:0"/>
			</linearGradient>
			<path fill="url(#SVGID_3_)" stroke="#1D1D1B" stroke-width="0.5" stroke-miterlimit="10" d="M21.4,53.423"/>
			<linearGradient id="SVGID_4_" gradientUnits="userSpaceOnUse" x1="1.251" y1="41.1973" x2="1.251" y2="41.1973">
				<stop  offset="0" style="stop-color:#2580C3"/>
				<stop  offset="1" style="stop-color:#2580C3;stop-opacity:0"/>
			</linearGradient>
			<path fill="url(#SVGID_4_)" stroke="#1D1D1B" stroke-width="0.5" stroke-miterlimit="10" d="M1.251,41.197"/>
			<linearGradient id="SVGID_5_" gradientUnits="userSpaceOnUse" x1="42.0874" y1="41.1973" x2="42.0874" y2="41.1973">
				<stop  offset="0" style="stop-color:#2580C3"/>
				<stop  offset="1" style="stop-color:#2580C3;stop-opacity:0"/>
			</linearGradient>
			<path fill="url(#SVGID_5_)" stroke="#1D1D1B" stroke-width="0.5" stroke-miterlimit="10" d="M42.087,41.197"/>
			<linearGradient id="SVGID_6_" gradientUnits="userSpaceOnUse" x1="1.251" y1="47.3105" x2="21.4004" y2="47.3105">
				<stop  offset="0" style="stop-color:#2580C3"/>
				<stop  offset="1" style="stop-color:#2580C3;stop-opacity:0"/>
			</linearGradient>
			
				<line fill="url(#SVGID_6_)" stroke="#1D1D1B" stroke-width="0.5" stroke-miterlimit="10" x1="21.4" y1="53.423" x2="1.251" y2="41.197"/>
			<linearGradient id="SVGID_7_" gradientUnits="userSpaceOnUse" x1="21.4004" y1="47.3105" x2="42.0874" y2="47.3105">
				<stop  offset="0" style="stop-color:#2580C3"/>
				<stop  offset="1" style="stop-color:#2580C3;stop-opacity:0"/>
			</linearGradient>
			
				<line fill="url(#SVGID_7_)" stroke="#1D1D1B" stroke-width="0.5" stroke-miterlimit="10" x1="21.4" y1="53.423" x2="42.087" y2="41.197"/>
			<linearGradient id="SVGID_8_" gradientUnits="userSpaceOnUse" x1="21.4004" y1="2.1206" x2="21.4004" y2="2.1206">
				<stop  offset="0" style="stop-color:#2580C3"/>
				<stop  offset="1" style="stop-color:#2580C3;stop-opacity:0"/>
			</linearGradient>
			<path fill="url(#SVGID_8_)" stroke="#1D1D1B" stroke-width="0.5" stroke-miterlimit="10" d="M21.4,2.121"/>
			<linearGradient id="SVGID_9_" gradientUnits="userSpaceOnUse" x1="42.0874" y1="41.1973" x2="42.0874" y2="41.1973">
				<stop  offset="0" style="stop-color:#2580C3"/>
				<stop  offset="1" style="stop-color:#2580C3;stop-opacity:0"/>
			</linearGradient>
			<path fill="url(#SVGID_9_)" stroke="#1D1D1B" stroke-width="0.5" stroke-miterlimit="10" d="M42.087,41.197"/>
			<linearGradient id="SVGID_10_" gradientUnits="userSpaceOnUse" x1="1.251" y1="21.6592" x2="21.4004" y2="21.6592">
				<stop  offset="0" style="stop-color:#2580C3"/>
				<stop  offset="1" style="stop-color:#2580C3;stop-opacity:0"/>
			</linearGradient>
			
				<line fill="url(#SVGID_10_)" stroke="#1D1D1B" stroke-width="0.5" stroke-miterlimit="10" x1="1.251" y1="41.197" x2="21.4" y2="2.121"/>
		</g>
	</g>
	<path fill="none" stroke="#1D1D1B" stroke-width="0.5" stroke-miterlimit="10" d="M1.979,9.675"/>
</g>
<g>
	<rect x="132.057" y="16.851" fill="none" width="164.277" height="23.602"/>
	<text transform="matrix(1 0 0 1 132.0566 36.7139)" fill="#FFFFFF" font-family="'OpticianSans-Regular'" font-size="39.7246">bit</text>
	<rect x="51.341" y="16.847" fill="none" width="164.274" height="23.602"/>
	<text transform="matrix(1 0 0 1 51.3413 36.71)" fill="#FFFFFF" font-family="'OpticianSans-Regular'" font-size="39.7246">cli</text>
	<polygon fill="#FFFFFF" points="129.139,16.847 125.566,16.847 119.181,25.386 119.181,28.754 121.19,28.746 124.175,24.752 
		124.542,24.107 124.836,23.498 125.086,22.795 125.166,22.793 125.174,36.704 129.135,36.704 	"/>
	
		<linearGradient id="SVGID_11_" gradientUnits="userSpaceOnUse" x1="39.1553" y1="359.0176" x2="49.1143" y2="359.0176" gradientTransform="matrix(-1 0 0 -1 158.3359 385.793)">
		<stop  offset="0" style="stop-color:#2580C3"/>
		<stop  offset="1" style="stop-color:#2580C3;stop-opacity:0"/>
	</linearGradient>
	<polygon fill="url(#SVGID_11_)" points="109.222,16.847 112.791,16.847 119.181,25.386 119.181,28.754 117.171,28.746 
		114.188,24.752 113.817,24.107 113.524,23.498 113.274,22.795 113.195,22.793 113.187,36.704 109.226,36.704 	"/>
	
		<linearGradient id="SVGID_12_" gradientUnits="userSpaceOnUse" x1="39.1553" y1="359.0176" x2="49.1143" y2="359.0176" gradientTransform="matrix(-1 0 0 -1 158.3359 385.793)">
		<stop  offset="0" style="stop-color:#2580C3"/>
		<stop  offset="1" style="stop-color:#2580C3;stop-opacity:0"/>
	</linearGradient>
	<polygon fill="url(#SVGID_12_)" points="109.222,16.847 112.791,16.847 119.181,25.386 119.181,28.754 117.171,28.746 
		114.188,24.752 113.817,24.107 113.524,23.498 113.274,22.795 113.195,22.793 113.187,36.704 109.226,36.704 	"/>
</g>
<polygon fill="#FCFCFA" stroke="#1D1D1B" stroke-width="0.5" stroke-miterlimit="10" points="7.533,45.153 21.526,53.423 
	21.526,2.121 0.839,41.197 "/>
</svg>
